<?xml version="1.0" encoding="utf-8"?>
<svg xmlns="http://www.w3.org/2000/svg">
<symbol id="arrow-down" viewBox="0 0 14 14">
  <path transform="matrix(1 0 0 -1 0 14)" d="M8.024 4.1v8.6a1.125 1.125 0 0 1-2.25 0V4.1L2.18 7.695A1.125 1.125 0 1 1 .59 6.104L6.103.588c.44-.439 1.151-.439 1.59 0l5.516 5.516a1.125 1.125 0 0 1-1.59 1.59L8.023 4.1z"/>

</symbol>
<symbol id="arrow-up" viewBox="0 0 14 14">
    <path d="M8.024 4.1v8.6a1.125 1.125 0 0 1-2.25 0V4.1L2.18 7.695A1.125 1.125 0 1 1 .59 6.104L6.103.588c.44-.439 1.151-.439 1.59 0l5.516 5.516a1.125 1.125 0 0 1-1.59 1.59L8.023 4.1z"/>

</symbol>
<symbol id="bold" viewBox="0 0 24 24">
<path d="M16.0123 16.453C16.7031 15.243 16.3465 13.7051 15.1936 12.9227L14.607 12.5246H8.54229L8.54229 17.4756C8.54229 17.6536 8.68657 17.7979 8.86455 17.7979L13.6955 17.7979C14.6532 17.7979 15.5374 17.2846 16.0123 16.453ZM8.54229 10.3246H14.6337C14.6343 10.324 14.635 10.3234 14.6357 10.3227C14.7111 10.2513 14.8005 10.1469 14.8994 10.0069C15.0988 9.72461 15.2857 9.37106 15.4413 9.0321C15.5884 8.71141 15.6138 8.30385 15.4929 7.85932C15.2268 6.88042 14.338 6.20104 13.3236 6.20104H8.56808C8.56249 6.20104 8.55994 6.20195 8.55838 6.20261C8.55609 6.20358 8.55298 6.20546 8.54984 6.20859C8.54671 6.21173 8.54483 6.21484 8.54386 6.21713C8.5432 6.21869 8.54229 6.22125 8.54229 6.22684L8.54229 10.3246ZM16.6868 11.2897C18.584 12.765 19.1303 15.4289 17.9227 17.5438C17.0563 19.0613 15.4429 19.9979 13.6955 19.9979L8.86455 19.9979C7.47154 19.9979 6.34229 18.8687 6.34229 17.4756L6.34229 11.4246L6.34229 6.22684C6.34229 4.99756 7.33881 4.00104 8.56808 4.00104L13.3236 4.00104C15.3307 4.00104 17.0892 5.34525 17.6159 7.2821C17.8423 8.11492 17.8457 9.06716 17.4408 9.94959C17.2571 10.35 17.0053 10.8389 16.6962 11.2763C16.6931 11.2808 16.6899 11.2852 16.6868 11.2897Z"/>

</symbol>
<symbol id="close" viewBox="0 0 20 20">
<path fill-rule="evenodd" clip-rule="evenodd" d="M14.4106 15.5892C14.736 15.9147 15.2637 15.9147 15.5891 15.5892C15.9145 15.2638 15.9145 14.7362 15.5891 14.4107L11.1783 9.99999L15.5891 5.58925C15.9145 5.26381 15.9145 4.73617 15.5891 4.41073C15.2637 4.0853 14.736 4.0853 14.4106 4.41073L9.99984 8.82148L5.58909 4.41073C5.26366 4.0853 4.73602 4.0853 4.41058 4.41073C4.08515 4.73617 4.08515 5.26381 4.41058 5.58925L8.82133 9.99999L4.41058 14.4107C4.08514 14.7362 4.08514 15.2638 4.41058 15.5892C4.73602 15.9147 5.26366 15.9147 5.58909 15.5892L9.99984 11.1785L14.4106 15.5892Z" fill="#04003D"/>

</symbol>
<symbol id="cross" viewBox="0 0 237 237">
  <path transform="rotate(45 280.675 51.325)" d="M191 191V73c0-5.523 4.477-10 10-10h25c5.523 0 10 4.477 10 10v118h118c5.523 0 10 4.477 10 10v25c0 5.523-4.477 10-10 10H236v118c0 5.523-4.477 10-10 10h-25c-5.523 0-10-4.477-10-10V236H73c-5.523 0-10-4.477-10-10v-25c0-5.523 4.477-10 10-10h118z"/>

</symbol>
<symbol id="dots" viewBox="0 0 16 16">
  <g transform="translate(4 1.5)" fill-rule="evenodd">
    <circle cx="1.3" cy="1.3" r="1.3"/>
    <circle cx="6.5" cy="1.3" r="1.3"/>
    <circle cx="6.5" cy="6.5" r="1.3"/>
    <circle cx="1.3" cy="6.5" r="1.3"/>
    <circle cx="6.5" cy="11.7" r="1.3"/>
    <circle cx="1.3" cy="11.7" r="1.3"/>
  </g>

</symbol>
<symbol id="italic" viewBox="0 0 24 24">
<path d="M8.00024 5.00121C8.00024 4.44892 8.44796 4.00121 9.00024 4.00121H17.0022C17.5545 4.00121 18.0022 4.44892 18.0022 5.00121C18.0022 5.55349 17.5545 6.00121 17.0022 6.00121H14.1749L11.8928 17.9987H15.0002C15.5525 17.9987 16.0002 18.4464 16.0002 18.9987C16.0002 19.551 15.5525 19.9987 15.0002 19.9987H6.99805C6.44576 19.9987 5.99805 19.551 5.99805 18.9987C5.99805 18.4464 6.44576 17.9987 6.99805 17.9987H9.8661L12.1481 6.00121H9.00024C8.44796 6.00121 8.00024 5.55349 8.00024 5.00121Z"/>

</symbol>
<symbol id="link" viewBox="0 0 24 24">
<path d="M11.2929 5.29287C13.3403 3.2455 16.6597 3.2455 18.7071 5.29287C20.7545 7.34024 20.7545 10.6597 18.7071 12.707L17.9571 13.457C17.5666 13.8476 16.9334 13.8476 16.5429 13.457C16.1524 13.0665 16.1524 12.4333 16.5429 12.0428L17.2929 11.2928C18.5592 10.0265 18.5592 7.9734 17.2929 6.70708C16.0266 5.44077 13.9734 5.44077 12.7071 6.70708L11.9571 7.45708C11.5666 7.8476 10.9334 7.8476 10.5429 7.45708C10.1524 7.06655 10.1524 6.43339 10.5429 6.04287L11.2929 5.29287ZM9.29295 13.2929L13.293 9.29289C13.6835 8.90237 14.3166 8.90237 14.7072 9.29289C15.0977 9.68342 15.0977 10.3166 14.7072 10.7071L10.7072 14.7071C10.3166 15.0976 9.68348 15.0976 9.29295 14.7071C8.90243 14.3166 8.90243 13.6834 9.29295 13.2929ZM5.29298 18.707C7.34034 20.7544 10.6598 20.7544 12.7071 18.707L13.4571 17.957C13.8477 17.5665 13.8477 16.9333 13.4571 16.5428C13.0666 16.1523 12.4335 16.1523 12.0429 16.5428L11.2929 17.2928C10.0266 18.5591 7.97351 18.5591 6.70719 17.2928C5.44088 16.0265 5.44088 13.9734 6.70719 12.707L7.45719 11.957C7.84771 11.5665 7.84771 10.9334 7.45719 10.5428C7.06666 10.1523 6.4335 10.1523 6.04297 10.5428L5.29298 11.2928C3.24561 13.3402 3.24561 16.6596 5.29298 18.707Z"/>

</symbol>
<symbol id="plus" viewBox="0 0 16 16">
  <g transform="translate(1 1.5)" fill-rule="evenodd">
    <rect x="6" width="2" height="13" rx="1"/>
    <rect x=".5" y="5.5" width="13" height="2" rx="1"/>
  </g>

</symbol>
<symbol id="sad-face" viewBox="0 0 52 52">
    <path fill="#D76B6B" fill-rule="nonzero" d="M26 52C11.64 52 0 40.36 0 26S11.64 0 26 0s26 11.64 26 26-11.64 26-26 26zm0-3.25c12.564 0 22.75-10.186 22.75-22.75S38.564 3.25 26 3.25 3.25 13.436 3.25 26 13.436 48.75 26 48.75zM15.708 33.042a2.167 2.167 0 1 1 0-4.334 2.167 2.167 0 0 1 0 4.334zm23.834 0a2.167 2.167 0 1 1 0-4.334 2.167 2.167 0 0 1 0 4.334zm-15.875 5.452a1.083 1.083 0 1 1-1.834-1.155c1.331-2.114 3.49-3.179 6.334-3.179 2.844 0 5.002 1.065 6.333 3.18a1.083 1.083 0 1 1-1.833 1.154c-.913-1.45-2.366-2.167-4.5-2.167s-3.587.717-4.5 2.167z"/>

</symbol>
<symbol id="search" viewBox="0 0 16 16">
  <path d="M12.711 2.18a7.448 7.448 0 0 1 .79 9.603l2.143 2.144a1.214 1.214 0 1 1-1.717 1.717L11.783 13.5a7.446 7.446 0 1 1 .928-11.32ZM11.39 3.61a5.5 5.5 0 1 0-7.778 7.78 5.5 5.5 0 0 0 7.778-7.78Z" fill-rule="evenodd"/>

</symbol>
<symbol id="strikethrough" viewBox="0 0 24 24">
<path d="M8.28206 5.18911C9.17323 4.38933 10.4438 4.00002 12 4.00002C13.637 4.00002 14.857 4.55036 15.6783 5.21374C16.0836 5.54108 16.3926 5.89647 16.6074 6.22728C16.7145 6.39223 16.8049 6.5613 16.8714 6.72771C16.9309 6.87628 17 7.09258 17 7.33335C17 7.88563 16.5523 8.33335 16 8.33335C15.4883 8.33335 15.0664 7.94904 15.0071 7.45332C14.9941 7.42454 14.9699 7.37787 14.9301 7.3165C14.8324 7.16606 14.6664 6.96729 14.4217 6.76962C13.943 6.383 13.163 6.00002 12 6.00002C10.7561 6.00002 10.0267 6.3107 9.61789 6.67759C9.22267 7.03228 9 7.55323 9 8.26668C9 8.46625 9.08283 8.73852 9.31185 9.07601C9.52483 9.38988 9.82962 9.70777 10.185 10H7.52896C7.22617 9.50161 7 8.91229 7 8.26668C7 7.11346 7.37731 6.00108 8.28206 5.18911ZM9.52274 12H14.4773H18C18.5523 12 19 12.4477 19 13C19 13.5523 18.5523 14 18 14H16.471C16.7738 14.4984 17 15.0877 17 15.7333C17 16.8866 16.6227 17.999 15.7179 18.8109C14.8267 19.6107 13.5561 20 12 20C10.363 20 9.14296 19.4497 8.32164 18.7863C7.91636 18.4589 7.60735 18.1036 7.39254 17.7727C7.28543 17.6078 7.1951 17.4387 7.12854 17.2723C7.06911 17.1237 6.99999 16.9074 7 16.6666C7.00003 16.1143 7.44777 15.6667 8.00005 15.6667C8.51173 15.6667 8.93363 16.051 8.99288 16.5467C9.00592 16.5755 9.03009 16.6222 9.06993 16.6835C9.16761 16.834 9.33359 17.0327 9.57832 17.2304C10.057 17.617 10.837 18 12 18C13.2438 18 13.9732 17.6893 14.3821 17.3224C14.7773 16.9677 15 16.4468 15 15.7333C15 15.5338 14.9172 15.2615 14.6881 14.924C14.4752 14.6102 14.1704 14.2923 13.815 14H6C5.44772 14 5 13.5523 5 13C5 12.4477 5.44772 12 6 12H9.52274ZM8.98043 16.5153C8.98058 16.5153 8.98167 16.5182 8.98327 16.5238C8.98109 16.518 8.98029 16.5152 8.98043 16.5153ZM15.0196 7.48477C15.0194 7.48471 15.0183 7.48182 15.0167 7.47624C15.0189 7.48203 15.0197 7.48482 15.0196 7.48477Z"/>

</symbol>
<symbol id="threedots" viewBox="0 0 16 16">
  <path d="M15.4141 6.58588C16.1952 7.36693 16.1952 8.63326 15.4141 9.41431C14.6331 10.1954 13.3668 10.1954 12.5857 9.41431C11.8047 8.63326 11.8047 7.36693 12.5857 6.58588C13.3668 5.80483 14.6331 5.80483 15.4141 6.58588Z"/>
  <path d="M9.41423 6.58588C10.1953 7.36693 10.1953 8.63326 9.41423 9.41431C8.63318 10.1954 7.36686 10.1954 6.58581 9.41431C5.80477 8.63326 5.80477 7.36693 6.58581 6.58588C7.36686 5.80483 8.63318 5.80483 9.41423 6.58588Z"/>
  <path d="M3.41424 6.58588C4.19528 7.36693 4.19528 8.63326 3.41424 9.41431C2.63319 10.1954 1.36686 10.1954 0.585815 9.41431C-0.195231 8.63326 -0.195231 7.36693 0.585815 6.58588C1.36686 5.80483 2.63319 5.80483 3.41424 6.58588Z"/>

</symbol>
<symbol id="tick-big" viewBox="0 0 20 20">
<path fill-rule="evenodd" clip-rule="evenodd" d="M16.4559 4.63403C16.8881 4.97784 16.9598 5.60694 16.6159 6.03916L9.32428 15.2058C9.13456 15.4443 8.84644 15.5833 8.54168 15.5833C8.23692 15.5833 7.9488 15.4443 7.75908 15.2058L3.38408 9.70582C3.04027 9.27361 3.11194 8.64451 3.54416 8.3007C3.97637 7.95689 4.60547 8.02856 4.94928 8.46078L8.54168 12.9769L15.0507 4.79411C15.3946 4.36189 16.0237 4.29022 16.4559 4.63403Z" fill="#0075FF"/>

</symbol>
<symbol id="tick" viewBox="0 0 20 20">
<path d="M14.7217 6.46173C15.065 6.76825 15.0948 7.29505 14.7883 7.63835L9.57996 13.4717C9.42185 13.6488 9.19573 13.75 8.95834 13.75C8.72095 13.75 8.49483 13.6488 8.33673 13.4717L5.21173 9.97169C4.9052 9.62838 4.93502 9.10159 5.27833 8.79506C5.62164 8.48853 6.14843 8.51835 6.45496 8.86166L8.95834 11.6655L13.5451 6.52833C13.8516 6.18502 14.3784 6.1552 14.7217 6.46173Z"/>

</symbol>
<symbol id="toggler-down">
  <path d="M6.5 9.294a.792.792 0 01-.562-.232L2.233 5.356a.794.794 0 011.123-1.123L6.5 7.377l3.144-3.144a.794.794 0 011.123 1.123L7.062 9.062a.792.792 0 01-.562.232z"/>

</symbol>
<symbol id="underline" viewBox="0 0 24 24">
<path d="M12 17C15.3137 17 18 14.3137 18 11L18 5C18 4.44772 17.5523 4 17 4C16.4477 4 16 4.44772 16 5L16 11C16 13.2091 14.2091 15 12 15C9.79086 15 8 13.2091 8 11L8 5C8 4.44771 7.55229 4 7 4C6.44771 4 6 4.44771 6 5L6 11C6 14.3137 8.68629 17 12 17ZM6 19C5.44772 19 5 19.4477 5 20C5 20.5523 5.44772 21 6 21H18C18.5523 21 19 20.5523 19 20C19 19.4477 18.5523 19 18 19H6Z"/>

</symbol>
<symbol id="unlink" viewBox="0 0 24 24">
  <path d="M11.2929 5.29287C13.3403 3.2455 16.6597 3.2455 18.7071 5.29287C20.7545 7.34024 20.7545 10.6597 18.7071 12.707L17.9571 13.457C17.5666 13.8476 16.9334 13.8476 16.5429 13.457C16.1524 13.0665 16.1524 12.4333 16.5429 12.0428L17.2929 11.2928C18.5592 10.0265 18.5592 7.9734 17.2929 6.70708C16.0266 5.44077 13.9734 5.44077 12.7071 6.70708L11.9571 7.45708C11.5666 7.8476 10.9334 7.8476 10.5429 7.45708C10.1524 7.06655 10.1524 6.43339 10.5429 6.04287L11.2929 5.29287ZM9.29295 13.2929L13.293 9.29289C13.6835 8.90237 14.3166 8.90237 14.7072 9.29289C15.0977 9.68342 15.0977 10.3166 14.7072 10.7071L10.7072 14.7071C10.3166 15.0976 9.68348 15.0976 9.29295 14.7071C8.90243 14.3166 8.90243 13.6834 9.29295 13.2929ZM5.29298 18.707C7.34034 20.7544 10.6598 20.7544 12.7071 18.707L13.4571 17.957C13.8477 17.5665 13.8477 16.9333 13.4571 16.5428C13.0666 16.1523 12.4335 16.1523 12.0429 16.5428L11.2929 17.2928C10.0266 18.5591 7.97351 18.5591 6.70719 17.2928C5.44088 16.0265 5.44088 13.9734 6.70719 12.707L7.45719 11.957C7.84771 11.5665 7.84771 10.9334 7.45719 10.5428C7.06666 10.1523 6.4335 10.1523 6.04297 10.5428L5.29298 11.2928C3.24561 13.3402 3.24561 16.6596 5.29298 18.707Z"/>

</symbol></svg>