<svg width="24" height="24" viewBox="0 0 24 24" fill="currentColor" xmlns="http://www.w3.org/2000/svg">
<path d="M16.0123 16.453C16.7031 15.243 16.3465 13.7051 15.1936 12.9227L14.607 12.5246H8.54229L8.54229 17.4756C8.54229 17.6536 8.68657 17.7979 8.86455 17.7979L13.6955 17.7979C14.6532 17.7979 15.5374 17.2846 16.0123 16.453ZM8.54229 10.3246H14.6337C14.6343 10.324 14.635 10.3234 14.6357 10.3227C14.7111 10.2513 14.8005 10.1469 14.8994 10.0069C15.0988 9.72461 15.2857 9.37106 15.4413 9.0321C15.5884 8.71141 15.6138 8.30385 15.4929 7.85932C15.2268 6.88042 14.338 6.20104 13.3236 6.20104H8.56808C8.56249 6.20104 8.55994 6.20195 8.55838 6.20261C8.55609 6.20358 8.55298 6.20546 8.54984 6.20859C8.54671 6.21173 8.54483 6.21484 8.54386 6.21713C8.5432 6.21869 8.54229 6.22125 8.54229 6.22684L8.54229 10.3246ZM16.6868 11.2897C18.584 12.765 19.1303 15.4289 17.9227 17.5438C17.0563 19.0613 15.4429 19.9979 13.6955 19.9979L8.86455 19.9979C7.47154 19.9979 6.34229 18.8687 6.34229 17.4756L6.34229 11.4246L6.34229 6.22684C6.34229 4.99756 7.33881 4.00104 8.56808 4.00104L13.3236 4.00104C15.3307 4.00104 17.0892 5.34525 17.6159 7.2821C17.8423 8.11492 17.8457 9.06716 17.4408 9.94959C17.2571 10.35 17.0053 10.8389 16.6962 11.2763C16.6931 11.2808 16.6899 11.2852 16.6868 11.2897Z"/>
</svg>
