<svg width="24" height="24" viewBox="0 0 24 24" fill="currentColor" xmlns="http://www.w3.org/2000/svg">
<path d="M8.00024 5.00121C8.00024 4.44892 8.44796 4.00121 9.00024 4.00121H17.0022C17.5545 4.00121 18.0022 4.44892 18.0022 5.00121C18.0022 5.55349 17.5545 6.00121 17.0022 6.00121H14.1749L11.8928 17.9987H15.0002C15.5525 17.9987 16.0002 18.4464 16.0002 18.9987C16.0002 19.551 15.5525 19.9987 15.0002 19.9987H6.99805C6.44576 19.9987 5.99805 19.551 5.99805 18.9987C5.99805 18.4464 6.44576 17.9987 6.99805 17.9987H9.8661L12.1481 6.00121H9.00024C8.44796 6.00121 8.00024 5.55349 8.00024 5.00121Z"/>
</svg>
