<svg width="24" height="24" viewBox="0 0 24 24" fill="currentColor" xmlns="http://www.w3.org/2000/svg">
<path d="M8.28206 5.18911C9.17323 4.38933 10.4438 4.00002 12 4.00002C13.637 4.00002 14.857 4.55036 15.6783 5.21374C16.0836 5.54108 16.3926 5.89647 16.6074 6.22728C16.7145 6.39223 16.8049 6.5613 16.8714 6.72771C16.9309 6.87628 17 7.09258 17 7.33335C17 7.88563 16.5523 8.33335 16 8.33335C15.4883 8.33335 15.0664 7.94904 15.0071 7.45332C14.9941 7.42454 14.9699 7.37787 14.9301 7.3165C14.8324 7.16606 14.6664 6.96729 14.4217 6.76962C13.943 6.383 13.163 6.00002 12 6.00002C10.7561 6.00002 10.0267 6.3107 9.61789 6.67759C9.22267 7.03228 9 7.55323 9 8.26668C9 8.46625 9.08283 8.73852 9.31185 9.07601C9.52483 9.38988 9.82962 9.70777 10.185 10H7.52896C7.22617 9.50161 7 8.91229 7 8.26668C7 7.11346 7.37731 6.00108 8.28206 5.18911ZM9.52274 12H14.4773H18C18.5523 12 19 12.4477 19 13C19 13.5523 18.5523 14 18 14H16.471C16.7738 14.4984 17 15.0877 17 15.7333C17 16.8866 16.6227 17.999 15.7179 18.8109C14.8267 19.6107 13.5561 20 12 20C10.363 20 9.14296 19.4497 8.32164 18.7863C7.91636 18.4589 7.60735 18.1036 7.39254 17.7727C7.28543 17.6078 7.1951 17.4387 7.12854 17.2723C7.06911 17.1237 6.99999 16.9074 7 16.6666C7.00003 16.1143 7.44777 15.6667 8.00005 15.6667C8.51173 15.6667 8.93363 16.051 8.99288 16.5467C9.00592 16.5755 9.03009 16.6222 9.06993 16.6835C9.16761 16.834 9.33359 17.0327 9.57832 17.2304C10.057 17.617 10.837 18 12 18C13.2438 18 13.9732 17.6893 14.3821 17.3224C14.7773 16.9677 15 16.4468 15 15.7333C15 15.5338 14.9172 15.2615 14.6881 14.924C14.4752 14.6102 14.1704 14.2923 13.815 14H6C5.44772 14 5 13.5523 5 13C5 12.4477 5.44772 12 6 12H9.52274ZM8.98043 16.5153C8.98058 16.5153 8.98167 16.5182 8.98327 16.5238C8.98109 16.518 8.98029 16.5152 8.98043 16.5153ZM15.0196 7.48477C15.0194 7.48471 15.0183 7.48182 15.0167 7.47624C15.0189 7.48203 15.0197 7.48482 15.0196 7.48477Z" />
</svg>
