<svg width="24" height="24" viewBox="0 0 24 24" fill="currentColor" xmlns="http://www.w3.org/2000/svg">
  <path d="M11.2929 5.29287C13.3403 3.2455 16.6597 3.2455 18.7071 5.29287C20.7545 7.34024 20.7545 10.6597 18.7071 12.707L17.9571 13.457C17.5666 13.8476 16.9334 13.8476 16.5429 13.457C16.1524 13.0665 16.1524 12.4333 16.5429 12.0428L17.2929 11.2928C18.5592 10.0265 18.5592 7.9734 17.2929 6.70708C16.0266 5.44077 13.9734 5.44077 12.7071 6.70708L11.9571 7.45708C11.5666 7.8476 10.9334 7.8476 10.5429 7.45708C10.1524 7.06655 10.1524 6.43339 10.5429 6.04287L11.2929 5.29287ZM9.29295 13.2929L13.293 9.29289C13.6835 8.90237 14.3166 8.90237 14.7072 9.29289C15.0977 9.68342 15.0977 10.3166 14.7072 10.7071L10.7072 14.7071C10.3166 15.0976 9.68348 15.0976 9.29295 14.7071C8.90243 14.3166 8.90243 13.6834 9.29295 13.2929ZM5.29298 18.707C7.34034 20.7544 10.6598 20.7544 12.7071 18.707L13.4571 17.957C13.8477 17.5665 13.8477 16.9333 13.4571 16.5428C13.0666 16.1523 12.4335 16.1523 12.0429 16.5428L11.2929 17.2928C10.0266 18.5591 7.97351 18.5591 6.70719 17.2928C5.44088 16.0265 5.44088 13.9734 6.70719 12.707L7.45719 11.957C7.84771 11.5665 7.84771 10.9334 7.45719 10.5428C7.06666 10.1523 6.4335 10.1523 6.04297 10.5428L5.29298 11.2928C3.24561 13.3402 3.24561 16.6596 5.29298 18.707Z"/>
</svg>
